<?xml version="1.0" encoding="UTF-8"?>
<svg version="1.1" xmlns="http://www.w3.org/2000/svg" width="512" height="512">
<path d="M0 0 C1.20849609 -0.02900391 2.41699219 -0.05800781 3.66210938 -0.08789062 C22.5641123 -0.21950607 37.52954095 7.89248312 51.0234375 20.63671875 C70.63507749 40.83608928 80.59099024 69.45600594 85.4375 96.6875 C85.61792847 97.66505249 85.61792847 97.66505249 85.80200195 98.66235352 C86.56585503 103.47563377 86.61716717 108.23967275 86.59033203 113.10400391 C86.58832291 113.79839066 86.58631378 114.4927774 86.58424377 115.20820618 C86.57903053 116.9096449 86.57104485 118.61107474 86.5625 120.3125 C87.74965103 120.30583817 88.93680206 120.29917633 90.15992737 120.29231262 C101.3567041 120.23145404 112.5534472 120.18650449 123.75035191 120.15706348 C129.5065711 120.14141867 135.26265658 120.12020176 141.01879883 120.08618164 C146.57550811 120.05354636 152.13208891 120.03563807 157.68888664 120.02786827 C159.80713867 120.02233228 161.92538379 120.01152184 164.04358101 119.99530983 C167.0143151 119.97348043 169.98452066 119.97053542 172.95532227 119.97192383 C173.82782623 119.961138 174.7003302 119.95035217 175.59927368 119.9392395 C182.33263716 119.97321182 187.03141726 121.18408951 192.3125 125.625 C196.93062923 131.14109881 198.03517491 135.83293562 197.88208008 142.91064453 C197.87190007 143.77620028 197.86172007 144.64175602 197.85123158 145.53354073 C197.62299329 157.28869771 196.58360248 169.0028171 195.61552262 180.7150178 C195.14525833 186.4473288 194.697309 192.18146927 194.24448574 197.91517901 C194.06207522 200.2221404 193.87877246 202.52902981 193.69542027 204.83591652 C192.28259581 222.65849896 190.99886775 240.49035194 189.71333551 258.32248402 C189.3899859 262.80277727 189.0649412 267.28294743 188.73995972 271.76312256 C187.67838872 286.40286673 186.61884491 301.04275442 185.56567383 315.68310547 C184.97239073 323.93009607 184.37584967 332.17684438 183.77572078 340.42333972 C183.40222405 345.55795223 183.03255215 350.69281949 182.66595232 355.82792878 C182.43823793 359.00387313 182.20667433 362.1795285 181.97406578 365.3551178 C181.8684962 366.80650938 181.76443451 368.25801169 181.66212463 369.70963669 C180.15042992 391.12272298 178.45280025 412.8286904 161.8515625 428.375 C152.37172278 436.39889164 143.08476627 438.76928987 130.81045532 438.70018005 C129.6548814 438.70556559 128.49930749 438.71095113 127.30871618 438.71649987 C124.12352977 438.72827802 120.93868185 438.72673333 117.75349283 438.71933305 C114.30962135 438.71458511 110.86580489 438.72712557 107.42195129 438.73735046 C100.68370218 438.75451232 93.94554642 438.75538389 87.20728113 438.75013756 C81.72798469 438.74608959 76.24871576 438.74754685 70.76942062 438.75288582 C69.98838875 438.75363424 69.20735688 438.75438266 68.40265738 438.75515376 C66.81578323 438.75668531 65.22890908 438.75822365 63.64203493 438.75976873 C48.77355071 438.77348442 33.90511917 438.76806273 19.03663616 438.75658352 C5.44871527 438.74665305 -8.13906941 438.75959022 -21.72696929 438.78351771 C-35.69540478 438.80792905 -49.66377688 438.81751153 -63.63223326 438.81086498 C-71.46789933 438.80737716 -79.30346068 438.80957586 -87.13911057 438.82711601 C-93.80968584 438.84186352 -100.48008267 438.84244034 -107.15065454 438.8250451 C-110.55066207 438.81655319 -113.95009058 438.81652244 -117.35012245 438.82969666 C-121.04420962 438.8429151 -124.73743742 438.83134974 -128.43148804 438.81370544 C-129.49444607 438.82331045 -130.55740411 438.83291546 -131.65257299 438.84281152 C-143.73678808 438.72446823 -153.48140831 434.36182228 -162.4375 426.3125 C-173.49639576 414.10598299 -176.47209776 397.88895841 -177.57910156 382.02783203 C-177.67754108 380.69021326 -177.77660072 379.35264001 -177.87622643 378.01510906 C-178.1452395 374.37976687 -178.40558072 370.74384956 -178.66439867 367.10776925 C-178.941535 363.23583633 -179.22677115 359.36449959 -179.51107788 355.49308777 C-179.99459292 348.89428429 -180.47310451 342.29513418 -180.94805908 335.69570923 C-181.624137 326.30199134 -182.30814056 316.90886416 -182.99430585 307.51587832 C-184.0968106 292.42148996 -185.19300079 277.326651 -186.28510594 262.23150694 C-187.68152093 242.93054368 -189.08828297 223.63034141 -190.49993134 204.3304863 C-190.86933218 199.27765101 -191.23675902 194.22467782 -191.6021862 189.17155361 C-191.82177757 186.13697858 -192.04236562 183.10247649 -192.26314163 180.06798744 C-192.40646209 178.09301577 -192.54840809 176.1179445 -192.6902771 174.14286804 C-193.122788 168.20933831 -193.62189995 162.29271694 -194.23529053 156.37522888 C-194.63338841 152.31425196 -194.7027358 148.26482458 -194.75 144.1875 C-194.77900391 143.34574219 -194.80800781 142.50398437 -194.83789062 141.63671875 C-194.89779735 135.69212799 -193.86923587 131.2372301 -190.4375 126.3125 C-188.4375 124.47265625 -188.4375 124.47265625 -186.4375 123.375 C-185.7775 122.99472656 -185.1175 122.61445313 -184.4375 122.22265625 C-181.09548765 120.70177954 -178.04432334 120.18735719 -174.38787842 120.19224548 C-173.59144928 120.19087082 -172.79502014 120.18949615 -171.97445679 120.18807983 C-171.10986847 120.19167511 -170.24528015 120.19527039 -169.35449219 120.19897461 C-167.97836258 120.19875557 -167.97836258 120.19875557 -166.57443237 120.1985321 C-163.54438913 120.19922834 -160.51440749 120.20700725 -157.484375 120.21484375 C-155.38258905 120.21670896 -153.28080266 120.21813238 -151.17901611 120.21913147 C-145.64866942 120.22294856 -140.11834901 120.23277199 -134.5880127 120.24383545 C-128.94409541 120.25406691 -123.30017388 120.25863281 -117.65625 120.26367188 C-106.58332179 120.27439495 -95.51041308 120.29146171 -84.4375 120.3125 C-84.3450576 118.36793159 -84.3450576 118.36793159 -84.25074768 116.38407898 C-84.16544643 114.66188816 -84.07998357 112.93970535 -83.99438477 111.2175293 C-83.95431557 110.3656176 -83.91424637 109.5137059 -83.87296295 108.6359787 C-83.53885867 102.0120198 -82.75340494 95.61842294 -81.375 89.125 C-81.15875977 88.08601563 -80.94251953 87.04703125 -80.71972656 85.9765625 C-75.55468708 62.35274056 -67.18928079 40.82216834 -51.4375 22.3125 C-50.59832031 21.30316406 -50.59832031 21.30316406 -49.7421875 20.2734375 C-36.84734173 6.08262733 -18.5607754 0.14432951 0 0 Z M-31.734375 35.453125 C-47.88871589 53.08951551 -54.83208556 74.69790325 -58.8125 97.875 C-59.06435059 99.33679688 -59.06435059 99.33679688 -59.32128906 100.828125 C-60.38341012 107.55412701 -60.4375 113.2643406 -60.4375 120.3125 C-19.5175 120.3125 21.4025 120.3125 63.5625 120.3125 C62.17757309 104.5946831 62.17757309 104.5946831 59.375 89.25 C59.05571533 87.89467163 59.05571533 87.89467163 58.72998047 86.51196289 C53.53854717 65.40493079 45.08350268 42.0156458 26.02734375 29.7421875 C7.64411743 19.07933356 -15.75261589 20.40234215 -31.734375 35.453125 Z M-35.4375 186.3125 C-36.7678125 187.2096875 -36.7678125 187.2096875 -38.125 188.125 C-46.52120337 196.06735454 -54.14128777 207.62895823 -54.7734375 219.44921875 C-55.06506765 233.94038436 -52.24197026 244.16797238 -42.4375 255.3125 C-29.18384694 268.00833938 -12.64567367 273.58620604 4.37109375 279.25 C24.02568893 285.82955275 42.93136999 293.06442946 53.57421875 312.12109375 C57.09532906 319.92877313 56.90436633 330.76919849 54 338.75 C48.51408204 350.27616212 38.74626784 355.85749285 27.27734375 360.453125 C5.86125877 367.23231737 -16.89938616 363.12724843 -36.65380859 353.2578125 C-40.31265202 351.31871563 -43.77905402 349.11644549 -47.203125 346.79296875 C-51.27517974 344.03884242 -51.27517974 344.03884242 -56 343.375 C-58.61536976 344.16032131 -58.61536976 344.16032131 -60.375 346.5625 C-61.70245977 349.21957251 -61.70245977 349.21957251 -60.8515625 351.71484375 C-55.1143605 362.25417891 -36.4330454 369.16419971 -25.4765625 372.62890625 C-21.8126756 373.65252826 -18.16009489 374.53096074 -14.4375 375.3125 C-13.38433594 375.53679687 -12.33117187 375.76109375 -11.24609375 375.9921875 C9.08548461 379.7073445 31.33377957 377.6375755 49.22265625 366.68359375 C59.95367997 358.75036695 67.82443624 348.25378777 70.27734375 334.94140625 C71.90865189 319.90208602 70.10858493 305.64200063 60.5625 293.3125 C46.35189476 277.88973787 26.85623532 271.42059312 7.54150391 264.90356445 C-9.65786281 259.09628935 -27.52639981 252.65242193 -37.4375 236.3125 C-40.89863841 228.84121501 -41.20259005 221.78063979 -38.6796875 213.96484375 C-34.72499559 204.27751021 -28.39128585 196.59041411 -18.84375 192.08984375 C-2.41097818 185.34757413 16.16742169 186.99770016 32.5625 193.3125 C36.23131779 194.9560864 39.81360703 196.74255048 43.3137207 198.72070312 C47.2530811 200.91022895 50.05367093 201.82081601 54.5625 201.3125 C56.5625 200.3125 56.5625 200.3125 57.5625 198.3125 C58.39733326 195.44273717 58.39733326 195.44273717 57.5625 192.3125 C48.70000087 181.89906352 30.82566608 176.84058289 17.5625 175.3125 C-1.86172404 173.82626175 -19.0940077 174.76828719 -35.4375 186.3125 Z " fill="#F1582C" transform="translate(256.4375,37.6875)"/>
</svg>
